<svg xmlns="http://www.w3.org/2000/svg" viewBox="0 0 800 600" preserveAspectRatio="xMidYMid slice"><rect width="800" height="600" fill="#F3E3C3"/><rect x="60" y="150" width="200" height="150" rx="6" fill="#fff" stroke="#2B2B2B" stroke-width="5"/><rect x="60" y="320" width="200" height="14" rx="7" fill="#2B2B2B" opacity=".25"/><rect x="60" y="346" width="140" height="14" rx="7" fill="#2B2B2B" opacity=".18"/><rect x="300" y="150" width="200" height="150" rx="6" fill="#fff" stroke="#2B2B2B" stroke-width="5"/><rect x="300" y="320" width="200" height="14" rx="7" fill="#2B2B2B" opacity=".25"/><rect x="300" y="346" width="140" height="14" rx="7" fill="#2B2B2B" opacity=".18"/><rect x="540" y="150" width="200" height="150" rx="6" fill="#fff" stroke="#2B2B2B" stroke-width="5"/><rect x="540" y="320" width="200" height="14" rx="7" fill="#2B2B2B" opacity=".25"/><rect x="540" y="346" width="140" height="14" rx="7" fill="#2B2B2B" opacity=".18"/><circle cx="130" cy="225" r="30" fill="#FF8A65"/><rect x="100" y="250" width="60" height="40" rx="18" fill="#FF8A65"/><circle cx="400" cy="215" r="22" fill="#FF8A65"/><path d="M330 290 L470 290" stroke="#2B2B2B" stroke-width="5"/><path d="M360 255 l80 0" stroke="#FF8A65" stroke-width="30" stroke-linecap="round"/><circle cx="640" cy="230" r="50" fill="#F2C14E"/><path d="M610 230 l20 18 l35 -38" stroke="#2B2B2B" stroke-width="8" fill="none" stroke-linecap="round" stroke-linejoin="round"/><path d="M268 225 l20 0 m-8 -8 l8 8 l-8 8 M508 225 l20 0 m-8 -8 l8 8 l-8 8" stroke="#2B2B2B" stroke-width="5" fill="none"/></svg>